<svg width="390" height="391" viewBox="0 0 390 391" fill="none" xmlns="http://www.w3.org/2000/svg">
<g filter="url(#filter0_d_11_18)">
<path d="M344.268 240.404C342.931 244.836 341.421 249.157 339.732 253.394C338.159 257.343 336.441 261.188 334.578 264.93C332.767 268.6 330.81 272.167 328.77 275.62C322.768 285.691 315.721 294.946 307.847 303.243C305.315 305.899 302.691 308.469 300.003 310.96C294.98 315.548 289.7 319.822 284.125 323.712C281.298 325.689 278.442 327.57 275.503 329.336C256.561 340.869 235.232 348.349 212.973 351.037C211.325 351.248 209.666 351.396 208.008 351.544C203.094 351.978 198.165 352.171 193.186 352.143C189.647 352.107 186.113 351.954 182.558 351.678C171.582 350.813 160.52 348.772 149.548 345.461C107.167 332.672 74.2764 303.404 55.6572 266.709C53.4495 262.357 51.4522 257.892 49.6569 253.34C45.9915 244.096 43.2315 234.477 41.3632 224.625C40.8861 222.123 40.4791 219.582 40.1341 217.031C38.8508 207.769 38.4077 198.347 38.8423 188.837C39.3999 176.003 41.5539 163.031 45.4357 150.167C47.8251 142.249 50.784 134.68 54.2238 127.462C55.5616 124.682 56.937 121.971 58.4118 119.321C60.0464 116.335 61.7991 113.443 63.5974 110.595C66.9316 105.38 70.5828 100.379 74.4727 95.6556C81.5205 87.0795 89.4352 79.3252 98.0066 72.5061C103.254 68.3402 108.751 64.5148 114.462 61.0489C125.264 54.5196 136.813 49.3067 148.872 45.5156C149.259 45.3967 149.647 45.2779 150.035 45.1591C158.05 42.7127 166.278 40.9205 174.658 39.793C191.293 37.5598 208.472 37.9969 225.618 41.4608C230.463 42.4216 235.288 43.6418 240.101 45.0944C254.462 49.4278 267.745 55.6771 279.753 63.4287C284.858 66.7381 289.738 70.3041 294.358 74.1458C296.096 75.584 297.798 77.0412 299.457 78.5443C306.374 84.7892 312.669 91.642 318.326 98.9513C324.437 106.899 329.77 115.378 334.263 124.311C342.874 141.475 348.371 160.206 350.251 179.643C350.486 182.073 350.678 184.549 350.789 187C351.18 194.843 350.987 202.775 350.164 210.753C349.19 220.69 347.228 230.595 344.268 240.404Z" fill="url(#paint0_radial_11_18)"/>
<path d="M344.268 240.404C340.46 253.024 335.206 264.796 328.77 275.62C263.85 220.943 117.663 241.4 38.8341 188.864C39.3917 176.03 41.5457 163.058 45.4275 150.194C47.8169 142.276 50.7758 134.707 54.2156 127.489C190.328 227.828 268.588 168.976 350.194 210.85C349.19 220.69 347.228 230.595 344.268 240.404Z" fill="url(#paint1_linear_11_18)"/>
<path d="M350.845 187.105C273.729 148.826 162.156 176.603 63.6427 110.638C66.9769 105.423 70.6281 100.422 74.518 95.6987C152.218 156.739 271.684 144.907 350.307 179.749C350.534 182.205 350.734 184.654 350.845 187.105Z" fill="url(#paint2_linear_11_18)"/>
<path d="M334.311 124.444C232.857 151.648 132.228 94.8334 98.044 72.5764C103.291 68.4104 108.788 64.585 114.499 61.1191C212.961 120.641 289.605 107.592 318.374 99.0837C324.493 107.004 329.818 115.511 334.311 124.444Z" fill="url(#paint3_linear_11_18)"/>
<path d="M299.513 78.6498C256.54 91.1565 212.606 60.8566 148.909 45.5859C157.301 42.9585 165.917 41.0474 174.695 39.8633C212.088 52.946 261.76 81.734 294.423 74.2242C296.16 75.6625 297.854 77.1467 299.513 78.6498Z" fill="url(#paint4_linear_11_18)"/>
<path d="M279.845 63.5153C268.241 65.4094 248.198 63.9608 225.709 41.5475C230.554 42.5082 235.379 43.7284 240.193 45.181C254.553 49.5144 267.817 55.7286 279.845 63.5153Z" fill="url(#paint5_linear_11_18)"/>
<path d="M307.847 303.243C305.314 305.899 302.691 308.469 300.002 310.96C244.627 262.376 116.34 259.104 41.3734 224.688C40.8963 222.185 40.4893 219.644 40.1443 217.093C138.842 260.764 262.704 252.352 307.847 303.243Z" fill="url(#paint6_linear_11_18)"/>
<path d="M193.194 352.116C189.654 352.08 186.121 351.927 182.566 351.651C156.337 338.812 85.7444 264.525 55.6567 266.709C53.4491 262.357 51.4517 257.892 49.6564 253.34C109.751 270.826 158.373 338.482 193.194 352.116Z" fill="url(#paint7_linear_11_18)"/>
<path d="M275.53 329.344C256.587 340.877 235.259 348.357 212.999 351.046C187.402 333.974 176.188 312.31 167.773 304.611C155.482 293.324 152.824 286.478 209.504 299.041C238.392 305.4 260.649 318.279 275.53 329.344Z" fill="url(#paint8_linear_11_18)"/>
<path opacity="0.45" d="M334.605 264.939C306.811 321.359 246.649 356.6 182.585 351.686C68.8677 342.815 3.30756 218.891 58.4491 119.391C63.7246 146.634 83.6671 180.014 140.868 207.477C227.452 248.997 294.206 241.691 334.605 264.939Z" fill="url(#paint9_linear_11_18)"/>
<path opacity="0.55" d="M280.835 325.962C279.106 327.121 277.323 328.264 275.53 329.345C256.588 340.877 235.259 348.357 212.999 351.046C211.352 351.256 209.693 351.404 208.035 351.552C203.121 351.986 198.192 352.179 193.213 352.151C189.674 352.115 186.14 351.963 182.585 351.686C171.609 350.821 160.547 348.78 149.575 345.469C107.194 332.68 74.3033 303.413 55.6841 266.717C53.795 262.963 52.0379 259.16 50.456 255.262C72.2111 271.94 107.28 284.557 162.813 287.31C211.615 289.712 250.297 304.747 280.835 325.962Z" fill="url(#paint10_linear_11_18)"/>
<path d="M344.267 240.404C342.93 244.836 341.421 249.157 339.731 253.394C349.519 219.404 350.099 175.381 319.839 127.772C261.751 36.3546 173.135 42.0168 150.099 45.2375C158.114 42.7911 166.342 40.9988 174.722 39.8714C191.357 37.6382 208.536 38.0752 225.682 41.5392C230.527 42.4999 235.352 43.7201 240.165 45.1727C254.526 49.5062 267.809 55.7555 279.817 63.5071C284.921 66.8165 289.801 70.3825 294.422 74.2242C296.159 75.6624 297.862 77.1196 299.521 78.6227C306.438 84.8675 312.732 91.7203 318.39 99.0297C324.501 106.977 329.834 115.457 334.327 124.39C342.938 141.554 348.435 160.284 350.315 179.722C350.55 182.151 350.742 184.627 350.853 187.078C351.244 194.921 351.051 202.854 350.228 210.831C349.19 220.69 347.228 230.595 344.267 240.404Z" fill="url(#paint11_linear_11_18)"/>
</g>
<defs>
<filter id="filter0_d_11_18" x="34.5876" y="38.4173" width="320.46" height="321.737" filterUnits="userSpaceOnUse" color-interpolation-filters="sRGB">
<feFlood flood-opacity="0" result="BackgroundImageFix"/>
<feColorMatrix in="SourceAlpha" type="matrix" values="0 0 0 0 0 0 0 0 0 0 0 0 0 0 0 0 0 0 127 0" result="hardAlpha"/>
<feOffset dy="4"/>
<feGaussianBlur stdDeviation="2"/>
<feComposite in2="hardAlpha" operator="out"/>
<feColorMatrix type="matrix" values="0 0 0 0 0 0 0 0 0 0 0 0 0 0 0 0 0 0 0.25 0"/>
<feBlend mode="normal" in2="BackgroundImageFix" result="effect1_dropShadow_11_18"/>
<feBlend mode="normal" in="SourceGraphic" in2="effect1_dropShadow_11_18" result="shape"/>
</filter>
<radialGradient id="paint0_radial_11_18" cx="0" cy="0" r="1" gradientUnits="userSpaceOnUse" gradientTransform="translate(196.722 103.369) rotate(16.7921) scale(255.678 256.933)">
<stop stop-color="#FFA360"/>
<stop offset="1" stop-color="#F22749"/>
</radialGradient>
<linearGradient id="paint1_linear_11_18" x1="224.038" y1="3.79866" x2="158.515" y2="438.003" gradientUnits="userSpaceOnUse">
<stop stop-color="#FFBB71"/>
<stop offset="1" stop-color="#FFBB71" stop-opacity="0"/>
</linearGradient>
<linearGradient id="paint2_linear_11_18" x1="229.222" y1="4.58039" x2="163.7" y2="438.782" gradientUnits="userSpaceOnUse">
<stop stop-color="#FFBB71"/>
<stop offset="1" stop-color="#FFBB71" stop-opacity="0"/>
</linearGradient>
<linearGradient id="paint3_linear_11_18" x1="230.468" y1="4.76845" x2="164.945" y2="438.971" gradientUnits="userSpaceOnUse">
<stop stop-color="#FFBB71"/>
<stop offset="1" stop-color="#FFBB71" stop-opacity="0"/>
</linearGradient>
<linearGradient id="paint4_linear_11_18" x1="232.899" y1="5.13465" x2="167.376" y2="439.34" gradientUnits="userSpaceOnUse">
<stop stop-color="#FFBB71"/>
<stop offset="1" stop-color="#FFBB71" stop-opacity="0"/>
</linearGradient>
<linearGradient id="paint5_linear_11_18" x1="259.372" y1="9.12936" x2="193.848" y2="443.337" gradientUnits="userSpaceOnUse">
<stop stop-color="#FFBB71"/>
<stop offset="1" stop-color="#FFBB71" stop-opacity="0"/>
</linearGradient>
<linearGradient id="paint6_linear_11_18" x1="213.298" y1="2.17766" x2="147.775" y2="436.381" gradientUnits="userSpaceOnUse">
<stop stop-color="#FFBB71"/>
<stop offset="1" stop-color="#FFBB71" stop-opacity="0"/>
</linearGradient>
<linearGradient id="paint7_linear_11_18" x1="168.249" y1="-4.62149" x2="102.727" y2="429.583" gradientUnits="userSpaceOnUse">
<stop stop-color="#FFBB71"/>
<stop offset="1" stop-color="#FFBB71" stop-opacity="0"/>
</linearGradient>
<linearGradient id="paint8_linear_11_18" x1="264.064" y1="9.83925" x2="198.541" y2="444.042" gradientUnits="userSpaceOnUse">
<stop stop-color="#FFBB71"/>
<stop offset="1" stop-color="#FFBB71" stop-opacity="0"/>
</linearGradient>
<linearGradient id="paint9_linear_11_18" x1="129.394" y1="336.377" x2="221.712" y2="138.054" gradientUnits="userSpaceOnUse">
<stop stop-color="#D8274D"/>
<stop offset="1" stop-color="#F22749" stop-opacity="0"/>
</linearGradient>
<linearGradient id="paint10_linear_11_18" x1="155.916" y1="343.119" x2="175.336" y2="237.53" gradientUnits="userSpaceOnUse">
<stop stop-color="#A9273E"/>
<stop offset="1" stop-color="#B62738" stop-opacity="0"/>
</linearGradient>
<linearGradient id="paint11_linear_11_18" x1="388.86" y1="54.7876" x2="234.676" y2="154.976" gradientUnits="userSpaceOnUse">
<stop stop-color="#FFECB8"/>
<stop offset="1" stop-color="#FFD371" stop-opacity="0.2"/>
</linearGradient>
</defs>
</svg>
