<svg width="97" height="97" viewBox="0 0 97 97" fill="none" xmlns="http://www.w3.org/2000/svg">
<g filter="url(#filter0_d_11_83)">
<path d="M48.5174 89C31.745 89 17.1328 79.7017 9.56808 65.9712C-7.12091 35.6973 15.8984 -1.05362 49.5016 0.0231157C70.8778 0.457149 88.9346 16.2243 92.3792 37.1914C96.8996 64.2517 76.0071 89 48.5174 89Z" fill="url(#paint0_radial_11_83)"/>
<g opacity="0.75">
<path d="M66.174 51.6982C64.3308 51.2391 63.822 53.5345 64.8646 54.052C65.9071 54.5779 68.526 56.147 69.0514 55.0954C69.5769 54.052 68.2674 52.224 66.174 51.6982Z" fill="#8E3316"/>
<path d="M84.4811 32.3336C82.6962 32.7426 80.5611 33.644 82.3876 34.9545C84.2225 36.2649 87.0916 35.7391 87.3584 34.1699C87.617 32.5923 87.8839 31.549 84.4811 32.3336Z" fill="#8E3316"/>
<path d="M48.6509 74.4682C44.8144 72.1645 39.2347 71.3298 38.7093 73.6836C38.1838 76.0374 41.8452 79.7017 46.2906 79.1758C50.7444 78.6583 51.2698 76.0374 48.6509 74.4682Z" fill="#8E3316"/>
<path d="M61.1619 87.1721C57.7006 88.1987 54.0642 88.8164 50.3027 88.9583C51.1618 83.5078 56.3411 85.2273 59.1101 85.9785C59.9191 86.2038 60.5947 86.6462 61.1619 87.1721Z" fill="#8E3316"/>
<path d="M24.3309 74.2095C26.0239 74.9523 27.2083 71.3298 24.8563 68.1914C22.5043 65.053 21.4535 61.1217 18.576 60.3371C15.6986 59.5525 14.1306 69.7606 24.3309 74.2095Z" fill="#8E3316"/>
<path d="M12.8209 61.3806C11.8952 61.5475 11.5115 63.4756 13.6049 63.7343C15.6983 64.0014 15.6983 60.8631 12.8209 61.3806Z" fill="#8E3316"/>
<path d="M36.099 50.6548C34.2558 50.4879 32.4376 51.4394 32.6962 53.5345C32.9547 55.6295 35.8321 53.5345 37.1416 53.5345C38.451 53.5345 38.9764 50.9136 36.099 50.6548Z" fill="#8E3316"/>
<path d="M54.147 26.3156C52.5623 25.5643 52.3121 28.9365 53.6215 29.454C54.931 29.9798 58.5924 28.4023 54.147 26.3156Z" fill="#8E3316"/>
</g>
<path d="M37.4082 43.3263C28.5174 44.8955 27.208 45.1543 19.1012 51.9653C13.7384 56.4642 8.14204 55.0118 4.97272 53.5094C4.38055 50.6047 4.0636 47.5915 4.0636 44.5032C4.0636 31.8495 9.34304 20.4227 17.8168 12.3263C19.5599 13.3613 21.3614 14.7636 22.7626 16.6332C26.6826 21.8667 25.8986 23.9617 37.4082 29.9798C48.9095 35.9978 46.299 41.7571 37.4082 43.3263Z" fill="url(#paint1_linear_11_83)"/>
<path d="M88.7013 25.4391C80.4944 23.7197 74.8981 33.0097 69.3101 32.3336C62.7713 31.549 64.6061 21.8667 59.1098 11.6585C56.3575 6.55031 56.1657 3.01127 56.6578 0.757629C70.8613 3.37852 82.6879 12.7603 88.7013 25.4391Z" fill="url(#paint2_linear_11_83)"/>
<path d="M92.9802 44.5031C92.9802 61.7727 83.1553 76.7385 68.7933 84.1171C65.5155 78.9337 70.8283 75.0858 77.1586 71.071C85.0069 66.0963 77.6841 64.0013 78.9852 55.8882C80.2946 47.7751 75.3238 47.2492 77.6757 40.4466C79.3521 35.5888 88.0928 40.1962 92.9552 43.2344C92.9719 43.6518 92.9802 44.0775 92.9802 44.5031Z" fill="url(#paint3_linear_11_83)"/>
<path d="M51.2699 57.9833C46.5159 59.4606 43.9471 53.7932 37.9337 55.1036C31.9203 56.4141 26.9495 67.1397 35.0563 66.881C43.1631 66.6222 45.2565 65.5705 51.2699 69.7606C57.2833 73.9507 64.3475 71.071 66.441 64.5271C68.526 57.9833 67.2166 53.0086 51.2699 57.9833Z" fill="url(#paint4_linear_11_83)"/>
<path d="M61.203 38.3515C58.7009 39.1528 58.067 40.4466 58.851 42.0158C59.635 43.585 62.7709 43.3262 64.3389 45.68C65.9069 48.0338 69.8352 50.9135 70.8777 45.68C71.9286 40.4466 66.9578 36.5152 61.203 38.3515Z" fill="url(#paint5_linear_11_83)"/>
<path opacity="0.5" d="M52.0542 24.7379C51.5871 28.2269 48.3928 24.7379 43.1634 23.6946C37.934 22.6512 35.8406 19.5045 38.1926 17.4095C40.5446 15.3144 43.6805 13.7452 46.8248 15.5732C49.9608 17.4095 52.5713 20.815 52.0542 24.7379Z" fill="#8E3316"/>
<path d="M46.5573 4.06294C40.0185 4.06294 36.8825 7.72719 30.8691 9.82224C27.2828 11.0659 24.4471 9.62191 22.7373 8.25304C30.0101 3.06133 38.9092 0.00640869 48.5256 0.00640869C48.8592 0.00640869 49.1845 0.00639952 49.5097 0.0230931C49.9685 1.90947 49.8017 4.06294 46.5573 4.06294Z" fill="url(#paint6_linear_11_83)"/>
<path opacity="0.45" d="M90.8614 58.1168C87.2333 69.4267 79.2016 78.7668 68.7928 84.1171C66.3658 85.3608 63.8137 86.3874 61.1615 87.1804C57.7002 88.207 54.0638 88.8247 50.3024 88.9666C49.7102 88.9916 49.118 89 48.5175 89C31.7451 89 17.1329 79.7016 9.56822 65.9712C7.44978 62.1316 5.88181 57.9415 4.97272 53.5094C4.38055 50.6047 4.0636 47.5915 4.0636 44.5032C4.0636 39.1279 5.0144 33.9779 6.75753 29.2119C11.7867 44.2444 23.2964 63.6424 49.46 67.2399C54.5643 67.941 59.3349 68.0328 63.7886 67.6489C74.7145 66.689 83.7054 62.8661 90.8614 58.1168Z" fill="url(#paint7_linear_11_83)"/>
<path opacity="0.45" d="M92.9793 44.5032C92.9793 49.2525 92.237 53.8265 90.8609 58.1168C87.2328 69.4267 79.2011 78.7668 68.7924 84.1171C66.3653 85.3607 63.8132 86.3874 61.161 87.1803C57.6998 88.207 54.0634 88.8247 50.3019 88.9666C49.7097 88.9916 49.1176 89 48.5171 89C31.7447 89 17.1324 79.7016 9.56775 65.9711C17.2575 69.1346 26.4152 71.2964 37.2743 71.7221C47.8081 72.1394 56.5488 70.5118 63.7882 67.6405C79.3512 61.4806 88.0252 49.5613 92.7291 39.7455C92.8542 40.889 92.9293 42.0576 92.9627 43.2261C92.971 43.6518 92.9793 44.0775 92.9793 44.5032Z" fill="url(#paint8_linear_11_83)"/>
<path d="M92.3877 37.2164C92.3877 37.2164 86.0575 14.0123 56.9497 6.37502C39.5018 1.79263 27.3916 5.92429 20.4941 9.96415C42.5209 -8.03155 76.2075 -0.886699 88.7013 25.4391C91.6038 31.5406 92.1792 36.3651 92.3877 37.2164Z" fill="url(#paint9_linear_11_83)"/>
</g>
<defs>
<filter id="filter0_d_11_83" x="0" y="0" width="96.9962" height="97" filterUnits="userSpaceOnUse" color-interpolation-filters="sRGB">
<feFlood flood-opacity="0" result="BackgroundImageFix"/>
<feColorMatrix in="SourceAlpha" type="matrix" values="0 0 0 0 0 0 0 0 0 0 0 0 0 0 0 0 0 0 127 0" result="hardAlpha"/>
<feOffset dy="4"/>
<feGaussianBlur stdDeviation="2"/>
<feComposite in2="hardAlpha" operator="out"/>
<feColorMatrix type="matrix" values="0 0 0 0 0 0 0 0 0 0 0 0 0 0 0 0 0 0 0.25 0"/>
<feBlend mode="normal" in2="BackgroundImageFix" result="effect1_dropShadow_11_83"/>
<feBlend mode="normal" in="SourceGraphic" in2="effect1_dropShadow_11_83" result="shape"/>
</filter>
<radialGradient id="paint0_radial_11_83" cx="0" cy="0" r="1" gradientUnits="userSpaceOnUse" gradientTransform="translate(50.7247 27.0903) scale(53.9572 53.999)">
<stop stop-color="#E57E33"/>
<stop offset="1" stop-color="#C64F1C"/>
</radialGradient>
<linearGradient id="paint1_linear_11_83" x1="19.3059" y1="-24.0973" x2="29.5207" y2="103.88" gradientUnits="userSpaceOnUse">
<stop stop-color="#F29036"/>
<stop offset="1" stop-color="#F29C36" stop-opacity="0"/>
</linearGradient>
<linearGradient id="paint2_linear_11_83" x1="69.1959" y1="-28.0794" x2="79.4107" y2="99.8983" gradientUnits="userSpaceOnUse">
<stop stop-color="#F26336"/>
<stop offset="1" stop-color="#F2C936" stop-opacity="0"/>
</linearGradient>
<linearGradient id="paint3_linear_11_83" x1="73.1574" y1="-28.3957" x2="83.3723" y2="99.5819" gradientUnits="userSpaceOnUse">
<stop stop-color="#F27A36"/>
<stop offset="1" stop-color="#F27A36" stop-opacity="0"/>
</linearGradient>
<linearGradient id="paint4_linear_11_83" x1="42.0041" y1="-25.9091" x2="52.2189" y2="102.069" gradientUnits="userSpaceOnUse">
<stop stop-color="#F28536"/>
<stop offset="1" stop-color="#F27A36" stop-opacity="0"/>
</linearGradient>
<linearGradient id="paint5_linear_11_83" x1="59.2191" y1="-27.2833" x2="69.434" y2="100.695" gradientUnits="userSpaceOnUse">
<stop stop-color="#F29C36"/>
<stop offset="1" stop-color="#F27A36" stop-opacity="0"/>
</linearGradient>
<linearGradient id="paint6_linear_11_83" x1="33.824" y1="-25.2562" x2="44.0389" y2="102.722" gradientUnits="userSpaceOnUse">
<stop stop-color="#F27A36"/>
<stop offset="1" stop-color="#F27A36" stop-opacity="0"/>
</linearGradient>
<linearGradient id="paint7_linear_11_83" x1="41.7595" y1="102.107" x2="48.4384" y2="41.2589" gradientUnits="userSpaceOnUse">
<stop stop-color="#8E2416"/>
<stop offset="1" stop-color="#8E3316" stop-opacity="0.3"/>
</linearGradient>
<linearGradient id="paint8_linear_11_83" x1="46.2426" y1="99.4909" x2="53.7072" y2="35.8953" gradientUnits="userSpaceOnUse">
<stop stop-color="#6F1B16"/>
<stop offset="1" stop-color="#653216" stop-opacity="0.3"/>
</linearGradient>
<linearGradient id="paint9_linear_11_83" x1="80.8072" y1="-24.4995" x2="52.7894" y2="30.7078" gradientUnits="userSpaceOnUse">
<stop stop-color="#FFC7B5"/>
<stop offset="1" stop-color="#FFC1B3" stop-opacity="0"/>
</linearGradient>
</defs>
</svg>
