<svg width="151" height="129" viewBox="0 0 151 129" fill="none" xmlns="http://www.w3.org/2000/svg">
<g clip-path="url(#clip0_11_32)">
<path d="M120.279 46.9871C126.808 38.7198 129.614 32.1124 127.24 28.9188C124.705 25.4986 116.723 26.6216 105.851 31.2122C105.904 31.2583 105.951 31.3064 105.999 31.3544C93.6687 19.8285 75.7201 15.8467 59.3276 21.8971C40.6532 28.7899 29.0994 46.7895 29.7351 65.9449C29.7297 65.8336 29.7224 65.7171 29.7222 65.604C7.61465 76.1653 7.78948 85.7422 31.6762 87.0257C25.1472 95.2931 22.3408 101.9 24.7149 105.094C27.4642 108.805 36.6182 107.166 48.9186 101.565C55.7906 106.424 63.7965 109.231 71.9823 109.803C78.1845 110.236 84.5695 109.393 90.7769 107.102C107.169 101.052 118.31 86.3151 120.135 69.3798C120.84 68.9705 139.966 60.8683 138.434 53.7051C137.598 49.8128 130.793 47.5516 120.279 46.9871ZM106.647 31.9672C115.484 28.181 121.777 27.1515 123.684 29.7249C126.795 33.9158 116.719 45.1727 116.314 45.7512C113.881 40.3686 110.5 35.6698 106.445 31.7737C106.511 31.8388 106.582 31.902 106.647 31.9672ZM29.763 66.6973C29.7394 66.2948 29.7846 72.7494 32.5314 80.1911C32.9611 81.3554 33.3721 82.324 33.7867 83.2376C33.7867 83.2376 33.7867 83.2376 33.7814 83.2395C12.5336 82.9185 10.2939 75.8676 29.763 66.6973ZM26.5136 101.927C24.6784 99.4526 27.2044 94.0512 32.898 87.0813C34.4235 87.138 35.4514 87.1518 35.7923 87.1571C38.3748 91.6562 41.6606 95.5799 45.4497 98.8531C44.9433 99.028 29.8017 106.357 26.5136 101.927ZM134.867 52.9661C136.004 58.2849 120.924 64.6851 120.393 64.9882C120.443 59.6782 119.572 54.5951 117.94 49.8346C118.382 49.308 118.828 48.7919 119.514 47.9429C128.499 48.2793 134.224 49.95 134.867 52.9661Z" fill="url(#paint0_radial_11_32)"/>
<path d="M110.432 51.4379C110.889 52.6755 111.277 53.9207 111.597 55.1732C111.916 56.4081 112.166 57.6505 112.358 58.8964C112.81 61.876 112.898 64.8528 112.643 67.7713C112.386 70.7802 111.763 73.7332 110.815 76.562C109.848 79.4515 108.53 82.2141 106.894 84.7903C104.674 88.2972 101.867 91.4547 98.5519 94.0904C95.4972 96.5288 91.9991 98.5231 88.1313 99.9507C82.9655 101.857 77.651 102.556 72.4928 102.195C67.225 101.828 62.126 100.355 57.5115 97.9227C50.1218 94.03 43.9836 87.6791 40.4466 79.4982C40.17 78.8614 39.9123 78.2117 39.6684 77.5509C38.5147 74.4252 37.7989 71.2452 37.4912 68.0755C37.259 65.7062 37.2619 63.3455 37.469 61.0225C38.7506 46.9813 47.8673 34.2371 61.9621 29.0347C73.6493 24.7209 86.114 26.5736 95.7823 32.9503C97.3393 33.9785 98.8278 35.1274 100.23 36.3797C104.098 39.8502 107.303 44.1673 109.519 49.1889C109.847 49.9319 110.151 50.6774 110.432 51.4379Z" fill="url(#paint1_radial_11_32)"/>
<path d="M66.7619 88.3768C66.7186 88.4047 66.6754 88.4325 66.6322 88.4604C65.4587 89.1319 64.639 87.5395 64.5124 85.9237C64.4175 84.6836 64.7421 83.372 65.4082 83.1142C65.6104 83.0337 65.8441 83.0547 66.1067 83.2021C69.2793 84.9985 67.9123 87.5946 66.7619 88.3768Z" fill="#3D3789"/>
<path d="M72.5001 102.199C67.2322 101.831 62.1333 100.358 57.5187 97.926C58.025 97.477 58.6603 97.0876 59.45 96.7782C59.6732 96.6899 59.9106 96.6082 60.1572 96.5351C66.556 94.6499 68.2268 98.5322 70.6616 100.005C71.2127 100.338 71.6011 100.665 71.8779 100.98C72.2919 101.441 72.4487 101.866 72.5001 102.199Z" fill="#4A3E9E"/>
<g opacity="0.75">
<path d="M78.9603 96.2269C75.0169 94.566 71.3814 94.8829 70.709 92.6582C70.6672 92.5127 70.6358 92.3634 70.6163 92.1978C70.3158 89.4664 77.3802 89.3199 80.1891 88.6645C83.6727 87.8554 86.5879 86.7794 88.8271 90.9285C91.0662 95.0777 83.1578 97.9967 78.9603 96.2269Z" fill="#4A3E9E"/>
<path d="M95.7544 81.5011C93.625 83.1273 90.5249 83.622 89.3659 82.3992C89.2196 82.2446 89.1042 82.0608 89.0268 81.851C88.3338 79.9735 92.6867 78.1524 93.8303 76.2882C94.9436 74.471 96.014 73.0689 97.0625 72.5746C97.9599 72.154 98.8385 72.4077 99.7101 73.6413C101.698 76.465 98.1525 79.6685 95.7544 81.5011Z" fill="#4A3E9E"/>
<path d="M100.768 52.1625C99.7204 53.3835 98.3302 54.6117 97.57 53.5992C97.2453 53.1708 97.0348 52.3428 97.0124 50.9448C96.9484 47.3395 99.4486 44.7362 101.521 44.6627C102.154 44.6376 102.748 44.8471 103.215 45.3365C105.901 48.1348 102.257 50.4272 100.768 52.1625Z" fill="#4A3E9E"/>
<path d="M57.9722 82.1405C57.9603 82.1568 57.9485 82.1731 57.9367 82.1894C54.8371 85.7468 47.7767 82.8587 47.5024 80.8267C47.4595 80.485 47.4614 80.2162 47.5212 79.9915C47.8155 78.8878 49.4367 79.0104 52.6839 78.2051C56.5528 77.2478 59.7177 80.0542 57.9722 82.1405Z" fill="#4A3E9E"/>
<path d="M45.0348 74.1579C44.9264 74.2992 44.8136 74.4123 44.6982 74.5026C43.5237 75.4128 42.3013 73.3256 41.0979 71.8212C39.9847 70.4325 40.2963 69.6978 41.0107 69.5711C41.1441 69.5458 41.2923 69.5447 41.4464 69.5593C43.9127 69.8288 46.314 72.4999 45.0348 74.1579Z" fill="#4A3E9E"/>
<path d="M106.894 84.7904C104.674 88.2973 101.867 91.4547 98.5518 94.0905C98.3419 93.9892 98.1368 93.8683 97.9519 93.722C97.2099 93.1616 96.7209 92.2397 97.0341 90.7357C97.7359 87.3364 100.079 87.4665 102.773 85.775C103.777 85.1424 104.627 84.8347 105.342 84.7257C105.965 84.6266 106.484 84.6794 106.894 84.7904Z" fill="#4A3E9E"/>
<path d="M112.359 58.8964C113.275 64.9401 112.687 70.9847 110.815 76.562C110.317 76.5015 109.83 76.3417 109.373 76.0395C109.359 76.0328 109.343 76.021 109.333 76.0124C106.172 73.8602 108.296 69.9955 107.618 64.3229C107.206 60.8876 109.158 59.6189 110.76 59.1586C111.409 58.9668 112.002 58.9146 112.359 58.8964Z" fill="#4A3E9E"/>
<path d="M110.432 51.438C110.889 52.6756 111.277 53.9207 111.597 55.1733C111.183 55.2782 110.737 55.2939 110.348 55.0443C110.214 54.9566 110.089 54.842 109.971 54.683C109.014 53.3796 107.755 54.4817 107.67 52.9283C107.585 51.4102 108.126 50.442 108.677 49.8571C108.989 49.5273 109.309 49.314 109.523 49.1994C109.846 49.932 110.151 50.6775 110.432 51.438Z" fill="#4A3E9E"/>
<path d="M83.86 80.6774C83.862 80.6826 83.8639 80.6879 83.8606 80.6951C84.1114 82.7119 79.6248 83.623 78.3373 83.6633C76.9316 83.7054 73.297 82.8005 73.3923 80.5129C73.426 79.702 73.7747 79.2932 74.3097 79.1315C75.657 78.7057 78.1672 79.835 79.4761 79.6915C81.9442 79.4181 83.6489 79.1226 83.86 80.6774Z" fill="#4A3E9E"/>
<path d="M55.4569 90.2135C55.4065 90.5122 55.314 90.7609 55.1759 90.9668C54.5195 91.9599 52.9394 91.8518 51.3471 91.2597C50.0228 90.7653 49.0693 89.4547 49.3808 88.8809C49.5172 88.622 49.9109 88.5125 50.6332 88.6809C52.9676 89.2374 55.749 88.4432 55.4569 90.2135Z" fill="#4A3E9E"/>
<path d="M101.537 71.7098C101.063 72.5522 100.064 72.2951 99.3963 71.7431C99.166 71.554 98.9789 71.337 98.8604 71.1126C98.3941 70.236 98.5522 69.7784 100.161 69.965C100.851 70.0443 101.321 70.1746 101.579 70.3893C101.907 70.6673 101.892 71.078 101.537 71.7098Z" fill="#4A3E9E"/>
<path d="M99.1837 63.8845C99.1654 63.8673 99.1401 63.8469 99.1219 63.8298C97.8847 62.7014 100.033 61.6582 100.475 60.327C100.861 59.1655 101.9 57.3224 102.977 57.8245C103.149 57.904 103.327 58.047 103.496 58.2645C105.686 61.0076 100.554 65.0352 99.1837 63.8845Z" fill="#4A3E9E"/>
<path d="M92.0378 92.5858C91.6391 92.6495 90.9798 92.5711 90.2975 91.512C90.2359 91.4096 90.1633 91.2934 90.0992 91.1681C89.3517 89.7874 88.7361 88.1197 89.5683 87.8126C89.987 87.658 90.5251 89.116 92.5202 90.0421C92.7353 90.1415 92.8901 90.2869 92.9945 90.4569C93.4477 91.2014 92.9476 92.4407 92.0378 92.5858Z" fill="#4A3E9E"/>
<path d="M90.3356 71.3631C89.9531 71.4387 89.556 71.4422 89.1742 71.3746C86.7068 70.9088 87.4122 65.7146 90.0397 66.598C90.1218 66.6272 90.1988 66.6584 90.2848 66.6982C94.1616 68.485 92.485 70.9511 90.3356 71.3631Z" fill="#4A3E9E"/>
<path d="M66.7619 88.3768C66.4348 88.1995 66.1087 87.9445 65.8335 87.5694C65.0688 86.5288 65.2942 84.062 65.4134 83.1123C65.6156 83.0317 65.8493 83.0527 66.1119 83.2001C69.2793 84.9985 67.9123 87.5946 66.7619 88.3768Z" fill="#4A3E9E"/>
</g>
<g opacity="0.7">
<path d="M69.1905 85.1444C68.7718 85.299 69.1833 87.042 69.6742 87.0992C70.1703 87.1544 70.8549 84.5301 69.1905 85.1444Z" fill="#3D3789"/>
<path d="M99.1249 40.3151C97.2534 40.8033 98.2791 42.9215 100.129 42.7452C101.979 42.5689 102.444 39.4475 99.1249 40.3151Z" fill="#3D3789"/>
<path d="M103.216 79.9329C102.096 80.3464 102.482 81.1512 103.831 81.6006C105.176 82.052 107.167 78.4744 103.216 79.9329Z" fill="#3D3789"/>
<path d="M47.6069 73.4409C46.4218 74.5159 47.8037 75.2632 49.0001 75.2983C50.1998 75.3262 49.3822 71.8382 47.6069 73.4409Z" fill="#3D3789"/>
<path d="M40.0164 64.3964C39.2357 64.8753 40.1359 66.0089 41.4642 65.757C42.7873 65.507 41.9414 63.2152 40.0164 64.3964Z" fill="#3D3789"/>
<path d="M97.7437 36.9278C96.7796 37.522 98.7989 39.1424 99.3233 38.0013C99.8478 36.8603 98.7078 36.3336 97.7437 36.9278Z" fill="#3D3789"/>
<path d="M70.9983 75.9442C70.2616 76.8001 72.0535 78.1588 73.3556 77.2074C74.6629 76.2541 72.4868 74.209 70.9983 75.9442Z" fill="#3D3789"/>
</g>
<path d="M92.9943 90.457C93.4475 91.2015 92.9475 92.4407 92.0377 92.5859C91.6389 92.6496 90.9796 92.5712 90.2973 91.5121C91.563 91.6706 92.4304 91.0883 92.9943 90.457Z" fill="#3D3789"/>
<path d="M41.096 71.816C39.9828 70.4273 40.2944 69.6926 41.0089 69.5659C40.8798 71.2463 43.4586 73.5122 44.7016 74.4954C43.5219 75.4076 42.2995 73.3203 41.096 71.816Z" fill="#3D3789"/>
<path d="M55.174 90.9616C54.5176 91.9546 52.9375 91.8466 51.3452 91.2545C50.021 90.7601 49.0674 89.4495 49.379 88.8757C50.7027 90.9315 53.5445 91.0744 55.174 90.9616Z" fill="#3D3789"/>
<path d="M57.9723 82.1405C57.9604 82.1568 57.9486 82.1731 57.9368 82.1894C54.8372 85.7468 47.7767 82.8587 47.5025 80.8267C47.4596 80.485 47.4615 80.2162 47.5213 79.9915C48.3926 80.5637 49.7063 81.2229 51.679 81.8951C54.7408 82.94 56.765 82.6398 57.9723 82.1405Z" fill="#3D3789"/>
<path d="M73.3922 80.5129C73.4259 79.702 73.7746 79.2932 74.3096 79.1315C73.9328 80.4147 74.163 81.7956 76.2667 82.5327C79.5559 83.6783 82.4589 81.8441 83.8605 80.6951C84.1114 82.7119 79.6248 83.6231 78.3372 83.6633C76.9367 83.7035 73.3022 82.7986 73.3922 80.5129Z" fill="#3D3789"/>
<path d="M88.8272 90.9286C91.0663 95.0777 83.158 97.9967 78.9604 96.227C75.0171 94.566 71.3816 94.8829 70.7091 92.6582C73.1283 93.1061 77.3272 94.4284 81.9531 95.3607C88.5908 96.7006 88.8272 90.9286 88.8272 90.9286Z" fill="#3D3789"/>
<path d="M90.3357 71.3631C92.0259 70.2387 90.8323 67.8429 90.0398 66.598C90.122 66.6273 90.1989 66.6584 90.285 66.6982C94.1618 68.485 92.4851 70.9511 90.3357 71.3631Z" fill="#3D3789"/>
<path d="M99.7105 73.6412C101.696 76.4597 98.1529 79.6684 95.7548 81.501C93.6254 83.1272 90.5253 83.6219 89.3663 82.3991C90.1574 82.5123 91.2361 82.567 92.2712 82.3101C94.2223 81.8283 98.2848 79.3814 98.6617 75.9232C98.883 73.9287 97.9153 72.9988 97.0629 72.5745C97.9603 72.1539 98.837 72.4024 99.7105 73.6412Z" fill="#3D3789"/>
<path d="M101.575 70.3965C101.907 70.6673 101.894 71.0833 101.539 71.715C101.065 72.5574 100.066 72.3004 99.3983 71.7483C100.585 71.8527 101.255 71.0096 101.575 70.3965Z" fill="#3D3789"/>
<path d="M103.491 58.2664C105.686 61.0076 100.549 65.0371 99.1784 63.8863C99.1602 63.8692 99.1348 63.8488 99.1166 63.8317C103.544 61.7447 103.554 59.3219 102.967 57.8283C103.144 57.9059 103.322 58.0489 103.491 58.2664Z" fill="#3D3789"/>
<path d="M100.768 52.1625C99.7204 53.3835 98.3302 54.6117 97.5699 53.5992C98.6029 51.6448 102.021 49.9484 103.235 47.9388C104.205 46.3294 102.674 45.2261 101.528 44.666C102.161 44.6409 102.756 44.8504 103.222 45.3398C105.901 48.1349 102.257 50.4273 100.768 52.1625Z" fill="#3D3789"/>
<path d="M71.8759 100.975C72.2918 101.441 72.4538 101.864 72.498 102.193C67.2301 101.826 62.1312 100.353 57.5167 97.9208C58.0229 97.4718 58.6582 97.0824 59.448 96.773C60.6175 97.5569 62.1953 98.4643 64.3244 99.4958C66.3441 100.472 68.9716 100.921 71.8759 100.975Z" fill="#3D3789"/>
<path d="M105.338 84.7329C105.971 84.6247 106.484 84.6794 106.896 84.7956C104.676 88.3025 101.869 91.46 98.5537 94.0957C98.3438 93.9944 98.1387 93.8735 97.9538 93.7272C101.381 90.8651 104.072 86.8272 105.338 84.7329Z" fill="#3D3789"/>
<path d="M112.358 58.8964C113.275 64.9401 112.687 70.9847 110.815 76.562C110.317 76.5016 109.83 76.3417 109.373 76.0395C112.135 70.7297 111.126 61.7112 110.766 59.1566C111.409 58.9668 112.002 58.9146 112.358 58.8964Z" fill="#3D3789"/>
<path d="M110.432 51.4379C110.889 52.6756 111.277 53.9207 111.597 55.1732C111.183 55.2781 110.737 55.2938 110.348 55.0443C110.91 53.3769 109.481 51.0026 108.677 49.8571C108.989 49.5273 109.309 49.3139 109.523 49.1994C109.847 49.9319 110.151 50.6775 110.432 51.4379Z" fill="#3D3789"/>
<path opacity="0.35" d="M110.432 51.4379C110.889 52.6756 111.277 53.9207 111.597 55.1732C111.916 56.4081 112.166 57.6505 112.358 58.8964C113.275 64.9401 112.687 70.9847 110.815 76.562C109.848 79.4516 108.53 82.2141 106.894 84.7903C104.674 88.2973 101.867 91.4547 98.5519 94.0905C95.4972 96.5289 91.9991 98.5232 88.1313 99.9508C82.9655 101.857 77.651 102.556 72.4928 102.195C67.2249 101.828 62.126 100.355 57.5115 97.9227C50.1218 94.03 43.9836 87.6791 40.4466 79.4982C61.3706 105.913 119.672 78.7096 100.232 36.385C104.099 39.8555 107.304 44.1725 109.521 49.1941C109.847 49.9319 110.151 50.6775 110.432 51.4379Z" fill="url(#paint2_linear_11_32)"/>
<path opacity="0.55" d="M112.643 67.7713C112.386 70.7802 111.763 73.7332 110.815 76.562C109.848 79.4515 108.53 82.2141 106.894 84.7903C104.674 88.2972 101.867 91.4547 98.5519 94.0904C95.4973 96.5288 91.9992 98.5231 88.1313 99.9508C82.9655 101.857 77.651 102.556 72.4928 102.195C67.225 101.828 62.126 100.355 57.5115 97.9227C50.1218 94.03 43.9836 87.6791 40.4466 79.4982C40.17 78.8614 39.9123 78.2117 39.6684 77.5509C38.5147 74.4252 37.7989 71.2453 37.4913 68.0755C50.1711 80.2588 80.1763 101.213 112.643 67.7713Z" fill="url(#paint3_linear_11_32)"/>
<path d="M112.687 49.9263C111.759 49.8757 110.795 49.8439 109.796 49.8257C109.407 49.8201 109.011 49.8113 108.612 49.8096C108.362 50.0986 108.107 50.3895 107.839 50.679C108.631 50.6666 109.399 50.6692 110.144 50.6742C110.796 50.6839 111.432 50.6993 112.047 50.7226C119.53 50.9998 124.289 52.3895 124.824 54.9032C125.413 57.6592 120.792 61.2659 112.781 64.9077C106.462 67.7824 98.0269 70.6754 88.381 73.2048C85.5973 73.9284 82.7105 74.6304 79.7482 75.2888C79.0944 75.4348 78.4334 75.5775 77.7653 75.7168C64.3728 78.5685 51.9911 80.034 42.7227 80.1061C42.3309 80.1077 41.9442 80.1075 41.5628 80.1052C41.2715 80.1055 40.9906 80.1019 40.7046 80.1002C32.2914 79.9758 26.8767 78.566 26.3023 75.882C25.7363 73.2366 29.9579 69.8193 37.3607 66.3361C37.3438 66.0325 37.3321 65.7269 37.3276 65.4247C28.3079 69.7311 23.0967 74.1573 23.8476 77.658C24.539 80.9006 30.2037 82.7784 38.9549 83.2547C39.2892 83.2743 39.6268 83.2867 39.9716 83.3025C40.7494 83.3312 41.5552 83.3556 42.3729 83.3636C50.653 83.4656 61.105 82.4918 72.4706 80.4002C74.4539 80.0376 76.4713 79.6386 78.5052 79.2037C79.4257 79.007 80.3338 78.8089 81.238 78.6002C93.4891 75.8303 104.389 72.2661 112.563 68.5696C122.645 64.0143 128.581 59.2489 127.784 55.5268C127.103 52.2803 121.436 50.3974 112.687 49.9263Z" fill="url(#paint4_linear_11_32)"/>
<path d="M95.7862 32.9608C90.8477 30.827 78.4634 25.3574 60.5782 33.9372C44.3725 41.7182 39.1251 54.8755 37.471 61.0278C38.7526 46.9865 47.8693 34.2423 61.9641 29.0399C73.6532 24.7314 86.1179 26.5841 95.7862 32.9608Z" fill="url(#paint5_linear_11_32)"/>
</g>
<defs>
<radialGradient id="paint0_radial_11_32" cx="0" cy="0" r="1" gradientUnits="userSpaceOnUse" gradientTransform="translate(75.0501 64.4983) rotate(-20.2591) scale(42.7792 42.8649)">
<stop stop-color="#C7F1F6"/>
<stop offset="1" stop-color="#D3F4F9" stop-opacity="0"/>
</radialGradient>
<radialGradient id="paint1_radial_11_32" cx="0" cy="0" r="1" gradientUnits="userSpaceOnUse" gradientTransform="translate(63.1284 47.5725) rotate(-20.2591) scale(66.4856 66.6188)">
<stop stop-color="#31E7C2"/>
<stop offset="1" stop-color="#652FB0"/>
</radialGradient>
<linearGradient id="paint2_linear_11_32" x1="111.647" y1="107.873" x2="57.7528" y2="44.1591" gradientUnits="userSpaceOnUse">
<stop stop-color="#4A3E9E"/>
<stop offset="1" stop-color="#4AE09E" stop-opacity="0.5"/>
</linearGradient>
<linearGradient id="paint3_linear_11_32" x1="92.2674" y1="106.993" x2="66.8659" y2="53.1827" gradientUnits="userSpaceOnUse">
<stop stop-color="#3D3789"/>
<stop offset="1" stop-color="#3DCC5E" stop-opacity="0.2"/>
</linearGradient>
<linearGradient id="paint4_linear_11_32" x1="81.9664" y1="86.6017" x2="71.4543" y2="52.3322" gradientUnits="userSpaceOnUse">
<stop stop-color="#83ECEC"/>
<stop offset="1" stop-color="#8EE2D3" stop-opacity="0.3"/>
</linearGradient>
<linearGradient id="paint5_linear_11_32" x1="58.113" y1="24.2846" x2="65.5004" y2="43.9806" gradientUnits="userSpaceOnUse">
<stop stop-color="#C7F1F6"/>
<stop offset="1" stop-color="#D3F4F9" stop-opacity="0"/>
</linearGradient>
<clipPath id="clip0_11_32">
<rect width="126.478" height="90.8237" fill="white" transform="translate(0 43.795) rotate(-20.2591)"/>
</clipPath>
</defs>
</svg>
