<?xml version="1.0" encoding="UTF-8"?>
<svg version="1.1" xmlns="http://www.w3.org/2000/svg" width="1536" height="634">
<path d="M0 0 C506.88 0 1013.76 0 1536 0 C1536 196.68 1536 393.36 1536 596 C1473.70586121 613.79832537 1411.51198796 625.19588869 1346.96905518 630.74285889 C1344.14251413 630.98765727 1341.3171245 631.24318104 1338.49169922 631.50048828 C1274.74747168 637.17581525 1208.22550788 636.9939864 1144.49731445 631.22460938 C1141.99956123 630.99996054 1139.5010188 630.78762458 1137.00195312 630.578125 C1052.76279346 623.4288795 965.15577489 608.85661113 879 572 C877.83911865 571.49073975 877.83911865 571.49073975 876.65478516 570.97119141 C844.51134533 556.79709625 808.44007956 535.06943871 795.0625 500.9375 C788.61543854 483.25725349 791.30933153 465.30229864 798.5390625 448.40234375 C804.51025849 435.62511631 812.81150728 424.8568067 822.46875 414.68359375 C824.61933453 412.40357589 826.66613724 410.08097726 828.6875 407.6875 C832.14570665 403.71786842 835.98270905 400.39020163 840 397 C841.02093186 396.1070676 842.04034781 395.2124003 843.05859375 394.31640625 C872.75160337 368.31079199 906.94148708 348.02792721 941.25878906 328.80200195 C950.08799111 323.85197021 958.77228899 318.91558893 967 313 C967.97582031 312.30777344 968.95164062 311.61554688 969.95703125 310.90234375 C986.34406851 298.97493666 1004.40088075 283.69603665 1009 263 C1010.07474682 253.18105456 1009.4982759 243.91194473 1005 235 C1004.59910156 234.1853125 1004.19820312 233.370625 1003.78515625 232.53125 C972.04300667 174.38331222 872.70360329 151.5717485 814.41503906 134.34814453 C782.19702919 124.93014207 749.63186553 116.83793012 717 109 C715.87730713 108.72969971 714.75461426 108.45939941 713.59790039 108.1809082 C643.04687207 91.23182422 571.52211633 78.10394264 500 66 C499.23269562 65.87009674 498.46539124 65.74019348 497.67483521 65.60635376 C408.10339512 50.45565547 318.12937025 37.67599775 43.75390625 5.36328125 C42.73813129 5.25602596 41.72235634 5.14877068 40.67580032 5.03826523 C27.1246357 3.60958003 13.56719721 2.26744167 0 1 C0 0.67 0 0.34 0 0 Z " fill="#1D1D1D" transform="translate(0,0)"/>
</svg>
