<svg width="25" height="28" viewBox="0 0 25 28" fill="none" xmlns="http://www.w3.org/2000/svg">
<path fill-rule="evenodd" clip-rule="evenodd" d="M4.56483 14L5.79017 14.0502C9.41329 14.1986 12.319 17.4112 12.4514 21.4151L12.5 22.8851L12.5486 21.4151C12.681 17.4112 15.5867 14.1986 19.2098 14.0502L20.4352 14L19.2098 13.9498C15.5867 13.8014 12.681 10.5888 12.5486 6.58486L12.5 5.11493L12.4514 6.58486C12.319 10.5888 9.41329 13.8014 5.79016 13.9498L4.56483 14ZM1.25792e-09 14.1864L0 13.8136L5.77766 13.5769C9.22404 13.4358 11.988 10.3798 12.1139 6.57123L12.3313 -1.90735e-06H12.6687L12.8861 6.57123C13.012 10.3798 15.776 13.4358 19.2223 13.5769L25 13.8136L25 14.1864L19.2223 14.4231C15.776 14.5642 13.012 17.6202 12.8861 21.4288L12.6687 28L12.3313 28L12.1139 21.4288C11.988 17.6202 9.22404 14.5642 5.77766 14.4231L1.25792e-09 14.1864Z" fill="white"/>
</svg>
